<?xml version="1.0" encoding="UTF-8" standalone="no"?>
<svg height="616" width="616" version="1.1" id="Layer_1" viewBox="-51.2 -51.2 614.4 614.4" xml:space="preserve" fill="#000000" sodipodi:docname="watertank.svg.svg" inkscape:version="1.4-beta3 (01c8a1c, 2024-08-28, custom)" xmlns:inkscape="http://www.inkscape.org/namespaces/inkscape" xmlns:sodipodi="http://sodipodi.sourceforge.net/DTD/sodipodi-0.dtd" xmlns="http://www.w3.org/2000/svg" xmlns:svg="http://www.w3.org/2000/svg">
  <defs id="defs4"/>
  <sodipodi:namedview id="namedview4" pagecolor="#ffffff" bordercolor="#000000" borderopacity="0.25" inkscape:showpageshadow="2" inkscape:pageopacity="0.0" inkscape:pagecheckerboard="0" inkscape:deskcolor="#d1d1d1" inkscape:zoom="1.3100649" inkscape:cx="308" inkscape:cy="308" inkscape:window-width="1920" inkscape:window-height="1009" inkscape:window-x="-8" inkscape:window-y="-8" inkscape:window-maximized="1" inkscape:current-layer="Layer_1">
    <inkscape:page x="0" y="0" width="614.40002" height="614.40002" id="page2" margin="0" bleed="0"/>
  </sodipodi:namedview>
  <g id="SVGRepo_iconCarrier">
    <path style="fill:#004a8f" d="M 340.457,344.804 C 339.706,344.855 256,322.124 256,322.124 c 0,0 -83.706,22.731 -84.457,22.679 -34.372,2.321 -61.531,30.948 -61.531,65.9 h 291.977 c -10e-4,-34.952 -27.16,-63.578 -61.532,-65.899 z" id="path1"/>
    <polygon style="fill:#c5ebfd" points="401.988,112.344 401.988,66.059 110.012,66.059 110.012,112.333 130.856,155.398 381.167,155.398 " id="polygon1"/>
    <path style="fill:#c5ebfd" d="M 401.988,66.059 H 110.012 C 110.012,29.571 139.583,0 176.071,0 h 159.858 c 36.488,0 66.059,29.571 66.059,66.059 z" id="path2"/>
    <path style="fill:#c5ebfd" d="m 366.945,128.649 c -15.189,0 -28.604,-7.407 -36.978,-18.762 -8.363,11.355 -21.811,18.762 -36.989,18.762 -15.178,0 -28.604,-7.407 -36.966,-18.762 -8.385,11.355 -21.811,18.762 -36.989,18.762 -15.178,0 -28.604,-7.407 -36.978,-18.762 -8.363,11.355 -21.811,18.762 -36.989,18.762 -14.063,0 -26.613,-6.349 -35.044,-16.316 v 166.571 c 0,34.964 27.159,63.579 61.531,65.9 1.502,0.102 167.413,0.102 168.915,0 34.372,-2.321 61.531,-30.936 61.531,-65.9 v -166.56 c -8.42,9.956 -20.993,16.305 -35.044,16.305 z" id="path3"/>
    <g id="g3"/>
    <path style="fill:#000066" d="M 424.745,402.174 H 87.255 c -4.713,0 -8.533,3.821 -8.533,8.533 0,4.712 3.821,8.533 8.533,8.533 h 0.854 l 7.498,74.999 c 0.967,9.773 9.796,17.761 19.615,17.761 h 281.555 c 9.819,0 18.648,-7.987 19.615,-17.761 l 7.498,-74.999 h 0.854 c 4.713,0 8.533,-3.821 8.533,-8.533 0,-4.712 -3.819,-8.533 -8.532,-8.533 z" id="path4"/>
  </g>
  <path style="fill:#48cae4;fill-opacity:1;stroke-width:0.509256" d="m 479.67088,247.00573 v 5.4012 a 3.0971323,3.1732972 0 0 1 -3.10267,3.17897 h -15.3151 a 3.1026666,3.1789674 0 0 1 -3.10268,-3.17897 v -5.4012 a 3.0971323,3.1732972 0 0 1 2.48585,-3.11557 v -6.07853 a 1.9218722,1.9691349 0 0 0 -1.92035,-1.96759 h -0.62939 c -2.85314,5.26099 -8.23487,8.55645 -14.23795,8.55645 -6.0031,0 -11.38333,-3.29495 -14.23796,-8.55645 h -23.552 a 3.1026666,3.1789674 0 0 1 -3.10266,-3.17898 v -10.49414 c 0,-1.75625 1.38858,-3.17897 3.10266,-3.17897 h 23.87298 a 16.360567,16.762906 0 0 1 8.45875,-7.03116 v -3.94755 q 0,-0.32784 0.0634,-0.63661 h -8.32693 a 3.1026666,3.1789674 0 0 1 -3.10266,-3.17897 v -4.55117 c 0,-1.75625 1.38858,-3.17898 3.10266,-3.17898 h 8.26355 v -0.39228 a 3.1011572,3.177421 0 0 1 3.10216,-3.17896 h 4.71462 c 1.71409,0 3.10268,1.42272 3.10268,3.17896 v 0.39641 h 8.26505 c 1.71408,0 3.10266,1.42272 3.10266,3.17896 v 4.55119 a 3.0971323,3.1732972 0 0 1 -3.10266,3.17897 H 449.248 q 0.0614,0.30876 0.0634,0.63661 v 3.94754 a 16.360567,16.762906 0 0 1 8.45876,7.03116 h 5.97139 c 7.30411,0 13.24532,6.08731 13.24532,13.57106 v 11.29572 a 3.0971323,3.1732972 0 0 1 2.68559,3.14701 m -3.22745,30.51953 a 2.8209262,2.8902984 0 0 0 -0.16099,-0.5526 l -4.61148,-15.05255 a 3.1011572,3.177421 0 0 0 -5.91856,0 l -4.68041,15.27729 q -0.0363,0.11442 -0.0614,0.23043 a 8.0109878,8.2079941 0 0 0 -0.37281,2.4707 c 0,4.56201 3.62189,8.27293 8.07438,8.27293 4.45251,0 8.07439,-3.71092 8.07439,-8.27293 a 8.0109878,8.2079941 0 0 0 -0.34413,-2.37225" id="path1-0"/>
</svg>
